# xmcd
#
# Track frame offsets: 
#        150
#        18038
#        37929
#        50152
#        64477
#        78813
#        90008
#        101873
#        116198
#        131013
#        144213
#        170583
#        180758
#        192016
#        208441
#        223908
#
# Disc length: 3192 seconds
#
# Revision: 0
# Processed by: cddbd v1.5.2PL0 Copyright (c) Steve Scherf et al.
# Submitted via: ExactAudioCopy v1.1
#
DISCID=dd0c7610
DTITLE=Supercharge - Jump! - The Very Best of (D2)
DYEAR=2015
DGENRE=Blues
TTITLE0=You Are My Sunshine
TTITLE1=Save Your Love for Me
TTITLE2=You Had Your Chance
TTITLE3=In a Sentimental Mood
TTITLE4=Naima
TTITLE5=Cakewalk Into Town
TTITLE6=Goddnight My Love
TTITLE7=Bad, Mad and Dangerous
TTITLE8=Main Squeeze
TTITLE9=Gotta Be that Boy
TTITLE10=Rainy Night in Georgia
TTITLE11=Fool That I Am
TTITLE12=When the Lights Go Out
TTITLE13=Caledonia
TTITLE14=Gangster of Love
TTITLE15=The Spirit in Me
EXTD=
EXTT0=
EXTT1=
EXTT2=
EXTT3=
EXTT4=
EXTT5=
EXTT6=
EXTT7=
EXTT8=
EXTT9=
EXTT10=
EXTT11=
EXTT12=
EXTT13=
EXTT14=
EXTT15=
PLAYORDER=
